<?xml version="1.0" encoding="UTF-8" standalone="no"?>
<!-- Created with Inkscape (http://www.inkscape.org/) -->

<svg
   width="251.11955mm"
   height="130mm"
   viewBox="0 0 251.11955 130"
   version="1.1"
   id="svg1"
   xml:space="preserve"
   inkscape:export-filename="single_heavy.svg"
   inkscape:export-xdpi="96"
   inkscape:export-ydpi="96"
   inkscape:version="1.3 (0e150ed6c4, 2023-07-21)"
   sodipodi:docname="single_heavy.svg"
   xmlns:inkscape="http://www.inkscape.org/namespaces/inkscape"
   xmlns:sodipodi="http://sodipodi.sourceforge.net/DTD/sodipodi-0.dtd"
   xmlns="http://www.w3.org/2000/svg"
   xmlns:svg="http://www.w3.org/2000/svg"><sodipodi:namedview
     id="namedview1"
     pagecolor="#ffffff"
     bordercolor="#000000"
     borderopacity="0.25"
     inkscape:showpageshadow="2"
     inkscape:pageopacity="0.0"
     inkscape:pagecheckerboard="0"
     inkscape:deskcolor="#d1d1d1"
     inkscape:document-units="mm"
     inkscape:zoom="0.72426347"
     inkscape:cx="521.21916"
     inkscape:cy="344.4879"
     inkscape:window-width="1920"
     inkscape:window-height="1009"
     inkscape:window-x="1912"
     inkscape:window-y="-8"
     inkscape:window-maximized="1"
     inkscape:current-layer="layer1" /><defs
     id="defs1" /><g
     inkscape:label="Layer 1"
     inkscape:groupmode="layer"
     id="layer1"
     transform="translate(32.955862,-57.267675)"><g
       id="g1"
       transform="translate(93.520295,-0.73062731)"><path
         style="color:#000000;clip-rule:nonzero;display:inline;overflow:visible;visibility:visible;isolation:auto;mix-blend-mode:normal;color-interpolation:sRGB;color-interpolation-filters:linearRGB;solid-color:#000000;solid-opacity:1;fill:#000000;fill-opacity:1;fill-rule:evenodd;stroke:#006fdf;stroke-width:0;stroke-linecap:round;stroke-linejoin:round;stroke-miterlimit:4;stroke-dasharray:none;stroke-dashoffset:0;stroke-opacity:1;marker:none;color-rendering:auto;image-rendering:auto;shape-rendering:auto;text-rendering:auto;enable-background:accumulate"
         d="m 59.969629,57.998303 c -19.531196,-0.0028 -35.368565,9.907799 -35.375089,22.136791 0.01702,4.924678 2.655386,9.705288 7.497938,13.585913 -7.792801,0.646049 -12.792012,1.540551 -14.042642,2.512632 -0.16709,0.149064 -0.11877,0.105756 -0.16709,0.149064 -0.10403,0.108993 -0.16045,0.218342 -0.1691,0.327773 -5.41539,29.714444 -11.1017104,59.096024 -16.3766804,84.912244 -0.70480003,3.4494 27.5912834,6.3756 61.6534364,6.37558 34.06195,-2e-5 61.669818,-2.85496 61.652948,-6.37558 0.002,-0.49361 -0.06,-0.63581 -0.06,-0.63581 l -22.70914,-84.510338 -0.16238,-0.242933 c -1.22538,-0.966075 -6.153428,-1.856374 -13.853948,-2.502856 4.83521,-3.885677 7.46322,-8.669845 7.46829,-13.595689 C 95.319672,67.910952 79.494349,58.002353 59.970893,57.998303 Z m 0,9.206151 c 12.798992,3.63e-4 23.173211,5.865663 23.169458,13.099338 -0.01458,5.724685 -6.606787,10.780508 -16.277178,12.48365 -2.305836,-0.03805 -4.641187,-0.05787 -6.98187,-0.05931 -2.304058,0.002 -4.602495,0.02187 -6.87224,0.05931 C 43.36095,91.072337 36.796564,86.019356 36.790122,80.303792 36.786322,73.067897 47.166719,67.201693 59.969629,67.204454 Z"
         id="path4554"
         inkscape:connector-curvature="0"
         sodipodi:nodetypes="ccccccssccccccccccccccc" /><g
         id="g2577"
         transform="matrix(0.61422019,0,0,0.61422019,115.80915,28.608158)"><g
           id="g2579"
           transform="translate(1.4286,-131.43)"><rect
             id="rect2581"
             rx="12"
             ry="12"
             height="138.57001"
             width="84.286003"
             y="252.36"
             x="-334.29001" /><path
             id="path2583"
             transform="matrix(0.72059,0,0,0.72059,-47.143,90.303)"
             d="m -291.43,172.36 a 48.571,48.571 0 1 1 -97.14,0 48.571,48.571 0 1 1 97.14,0 z" /></g><rect
           id="rect2585"
           transform="rotate(40)"
           rx="8"
           ry="8"
           height="114.29"
           width="25.714001"
           y="298.63"
           x="-172.71001" /><rect
           id="rect2587"
           transform="matrix(-0.76604,0.64279,0.64279,0.76604,0,0)"
           rx="8"
           ry="8"
           height="114.29"
           width="25.714001"
           y="-74.733002"
           x="272.25" /></g></g></g></svg>
