<?xml version="1.0" encoding="UTF-8" standalone="no"?>
<!-- Created with Inkscape (http://www.inkscape.org/) -->

<svg
   width="415.11572mm"
   height="130mm"
   viewBox="0 0 415.11572 130"
   version="1.1"
   id="svg1"
   xml:space="preserve"
   inkscape:version="1.3 (0e150ed6c4, 2023-07-21)"
   sodipodi:docname="single_cart.svg"
   xmlns:inkscape="http://www.inkscape.org/namespaces/inkscape"
   xmlns:sodipodi="http://sodipodi.sourceforge.net/DTD/sodipodi-0.dtd"
   xmlns="http://www.w3.org/2000/svg"
   xmlns:svg="http://www.w3.org/2000/svg"><sodipodi:namedview
     id="namedview1"
     pagecolor="#ffffff"
     bordercolor="#000000"
     borderopacity="0.25"
     inkscape:showpageshadow="2"
     inkscape:pageopacity="0.0"
     inkscape:pagecheckerboard="0"
     inkscape:deskcolor="#d1d1d1"
     inkscape:document-units="mm"
     inkscape:zoom="0.51213161"
     inkscape:cx="466.67692"
     inkscape:cy="129.84943"
     inkscape:window-width="1920"
     inkscape:window-height="1009"
     inkscape:window-x="1912"
     inkscape:window-y="-8"
     inkscape:window-maximized="1"
     inkscape:current-layer="layer1" /><defs
     id="defs1" /><g
     inkscape:label="Layer 1"
     inkscape:groupmode="layer"
     id="layer1"
     transform="translate(-168.63773,-83.204945)"><g
       id="g2577"
       transform="matrix(0.61422019,0,0,0.61422019,698.23852,53.8148)"><g
         id="g2579"
         transform="translate(1.4286,-131.43)"><rect
           id="rect2581"
           rx="12"
           ry="12"
           height="138.57001"
           width="84.286003"
           y="252.36"
           x="-334.29001" /><path
           id="path2583"
           transform="matrix(0.72059,0,0,0.72059,-47.143,90.303)"
           d="m -291.43,172.36 a 48.571,48.571 0 1 1 -97.14,0 48.571,48.571 0 1 1 97.14,0 z" /></g><rect
         id="rect2585"
         transform="rotate(40)"
         rx="8"
         ry="8"
         height="114.29"
         width="25.714001"
         y="298.63"
         x="-172.71001" /><rect
         id="rect2587"
         transform="matrix(-0.76604,0.64279,0.64279,0.76604,0,0)"
         rx="8"
         ry="8"
         height="114.29"
         width="25.714001"
         y="-74.733002"
         x="272.25" /></g><g
       inkscape:label="Layer 1"
       id="layer1-2"
       transform="matrix(2.4692077,0,0,2.4692077,113.63199,6.3541138)"><path
         style="fill:#ffffff;stroke-width:0.264583"
         d="m 23.814567,31.487483 h -1.537891 v -0.363802 h 0.988053 z"
         id="path23" /><path
         style="fill:#000000;stroke-width:0.264583"
         d="m 80.448125,47.333431 56.850245,-15.232975 1.33769,4.99233 -57.84499,15.499519 z"
         id="path24" /><path
         id="path25"
         style="fill:#000000;stroke-width:0.264583"
         d="m 22.320601,31.194994 9.958565,37.165691 H 44.216422 A 17.118614,17.118614 0 0 0 61.166809,83.772147 17.118614,17.118614 0 0 0 78.117195,68.360685 H 90.131966 L 100.0125,31.485416 h -76.2 z m 38.846208,22.081857 a 13.283296,13.283296 0 0 1 13.28291,13.283427 13.283296,13.283296 0 0 1 -13.28291,13.28291 13.283296,13.283296 0 0 1 -13.283427,-13.28291 13.283296,13.283296 0 0 1 13.283427,-13.283427 z" /><path
         id="path27"
         style="stroke-width:0.264583"
         d="m 63.832594,66.560059 a 2.6660137,2.6660137 0 0 1 -2.666014,2.666013 2.6660137,2.6660137 0 0 1 -2.666014,-2.666013 2.6660137,2.6660137 0 0 1 2.666014,-2.666014 2.6660137,2.6660137 0 0 1 2.666014,2.666014 z" /><path
         id="rect27"
         style="stroke-width:0.264583"
         d="m 45.357586,65.343979 h 31.617987 v 2.432153 H 45.357586 Z" /><path
         id="rect27-9"
         style="stroke-width:0.264583"
         transform="rotate(90)"
         d="m 50.751068,-62.38266 h 31.617987 v 2.432153 H 50.751068 Z" /><path
         id="rect27-6"
         style="stroke-width:0.264583"
         transform="rotate(135)"
         d="m -11.995222,-91.53244 h 31.617987 v 2.432153 h -31.617987 z" /><path
         id="rect27-9-1"
         style="stroke-width:0.264583"
         transform="rotate(-135)"
         d="m -106.12537,-5.0298457 h 31.61799 v 2.4321527 h -31.61799 z" /></g></g></svg>
