<?xml version="1.0" encoding="UTF-8" standalone="no"?>
<!-- Created with Inkscape (http://www.inkscape.org/) -->

<svg
   width="258.38803mm"
   height="130mm"
   viewBox="0 0 258.38804 130"
   version="1.1"
   id="svg1"
   xml:space="preserve"
   sodipodi:docname="single_feather.svg"
   inkscape:version="1.3 (0e150ed6c4, 2023-07-21)"
   inkscape:export-filename="single.svg"
   inkscape:export-xdpi="96"
   inkscape:export-ydpi="96"
   xmlns:inkscape="http://www.inkscape.org/namespaces/inkscape"
   xmlns:sodipodi="http://sodipodi.sourceforge.net/DTD/sodipodi-0.dtd"
   xmlns="http://www.w3.org/2000/svg"
   xmlns:svg="http://www.w3.org/2000/svg"><sodipodi:namedview
     id="namedview1"
     pagecolor="#ffffff"
     bordercolor="#000000"
     borderopacity="0.25"
     inkscape:showpageshadow="2"
     inkscape:pageopacity="0.0"
     inkscape:pagecheckerboard="0"
     inkscape:deskcolor="#d1d1d1"
     inkscape:document-units="mm"
     inkscape:zoom="0.72426347"
     inkscape:cx="241.62478"
     inkscape:cy="246.45727"
     inkscape:window-width="1920"
     inkscape:window-height="1009"
     inkscape:window-x="1912"
     inkscape:window-y="-8"
     inkscape:window-maximized="1"
     inkscape:current-layer="layer1" /><defs
     id="defs1" /><g
     inkscape:label="Layer 1"
     inkscape:groupmode="layer"
     id="layer1"
     transform="translate(-40.837493,-83.204945)"><g
       id="g2577"
       transform="matrix(0.61700833,0,0,0.61422019,284.22261,53.8148)"><g
         id="g2579"
         transform="translate(1.4286,-131.43)"><rect
           id="rect2581"
           rx="12"
           ry="12"
           height="138.57001"
           width="84.286003"
           y="252.36"
           x="-334.29001" /><path
           id="path2583"
           transform="matrix(0.72059,0,0,0.72059,-47.143,90.303)"
           d="m -291.43,172.36 a 48.571,48.571 0 1 1 -97.14,0 48.571,48.571 0 1 1 97.14,0 z" /></g><rect
         id="rect2585"
         transform="rotate(40)"
         rx="8"
         ry="8"
         height="114.29"
         width="25.714001"
         y="298.63"
         x="-172.71001" /><rect
         id="rect2587"
         transform="matrix(-0.76604,0.64279,0.64279,0.76604,0,0)"
         rx="8"
         ry="8"
         height="114.29"
         width="25.714001"
         y="-74.733002"
         x="272.25" /></g><path
       d="m 297.04094,85.381794 c -1.44442,-1.444415 -3.53059,-2.176845 -6.20094,-2.176845 -9.37708,0 -24.57817,9.123165 -32.80461,14.561345 l -0.65269,0.43149 -1.8701,14.757316 -4.94807,-10.03385 -1.63766,1.20003 c -10.5744,7.75102 -21.25104,16.87283 -30.06269,25.68447 -1.61721,1.61687 -3.20885,3.26134 -4.73132,4.88742 l -0.3156,0.33673 -6.60755,29.08282 -3.47912,-17.35475 -2.28557,3.1315 c -1.34761,1.84658 -2.61923,3.69248 -3.77973,5.48691 l -0.21097,0.32617 -2.8152,22.21215 -4.39492,-8.91218 -1.20481,4.27359 c -1.59404,5.6546 -1.57154,10.42408 0.0164,14.06544 l -18.59023,18.59057 c -1.66356,1.66389 -1.66356,4.36118 0,6.02507 0.83195,0.83162 1.92225,1.24775 3.01254,1.24775 1.0903,0 2.18059,-0.41613 3.01254,-1.24775 l 18.58239,-18.58238 c 1.82136,0.79582 3.93003,1.19901 6.31137,1.19901 3.4e-4,0 3.4e-4,0 6.8e-4,0 2.34759,0 4.95898,-0.40081 7.76123,-1.1905 l 4.27393,-1.20446 -8.91288,-4.39526 22.21216,-2.81521 0.32583,-0.21097 c 1.79068,-1.15743 3.63659,-2.42939 5.48727,-3.77972 l 3.13182,-2.28524 -17.35474,-3.47946 29.08317,-6.60789 0.33707,-0.3156 c 1.62982,-1.52655 3.27429,-3.1182 4.8874,-4.73131 12.32999,-12.32998 24.57713,-27.48265 33.60113,-41.57298 l 4.93886,-8.20772 0.0269,-0.0464 c 8.14295,-14.554526 10.11359,-24.092816 5.85671,-28.349366 z"
       id="path1"
       style="stroke-width:0.340823" /></g></svg>
